<svg xmlns="http://www.w3.org/2000/svg" viewBox="0 0 24 24" fill="none" stroke="currentColor" stroke-width="1.75" stroke-linecap="round" stroke-linejoin="round"><g opacity="0.28" fill="currentColor" stroke="none"><path d="M5 12.55a11 11 0 0 1 14.08 0M1.42 9a16 16 0 0 1 21.16 0M8.53 16.11a6 6 0 0 1 6.95 0"/><circle cx="12" cy="20" r="1"/></g><g fill="none" stroke="currentColor"><path d="M5 12.55a11 11 0 0 1 14.08 0M1.42 9a16 16 0 0 1 21.16 0M8.53 16.11a6 6 0 0 1 6.95 0"/><circle cx="12" cy="20" r="1"/></g></svg>
